<mxfile host="Electron" modified="2023-11-21T19:52:41.000Z" agent="Mozilla/5.0 (Windows NT 10.0; Win64; x64) AppleWebKit/537.36 (KHTML, like Gecko) draw.io/22.0.3 Chrome/114.0.5735.289 Electron/25.8.4 Safari/537.36" etag="l45fkDL6UjJ1KTZugf0d" version="22.0.3" type="device">
  <diagram name="Page-1" id="QS9lPjszknvYPP1s7NrL">
    <mxGraphModel dx="1368" dy="1180" grid="1" gridSize="10" guides="1" tooltips="1" connect="1" arrows="1" fold="1" page="1" pageScale="1" pageWidth="3300" pageHeight="4681" math="0" shadow="0">
      <root>
        <mxCell id="0" />
        <mxCell id="1" parent="0" />
        <mxCell id="GzhoWgsnZMcUSQ8cTw_N-1" value="" style="rounded=0;whiteSpace=wrap;html=1;" vertex="1" parent="1">
          <mxGeometry x="260" y="360" width="120" height="240" as="geometry" />
        </mxCell>
        <mxCell id="GzhoWgsnZMcUSQ8cTw_N-2" value="" style="endArrow=classic;html=1;rounded=0;entryX=0;entryY=0.5;entryDx=0;entryDy=0;" edge="1" parent="1" target="GzhoWgsnZMcUSQ8cTw_N-1">
          <mxGeometry width="50" height="50" relative="1" as="geometry">
            <mxPoint x="140" y="480" as="sourcePoint" />
            <mxPoint x="160" y="470" as="targetPoint" />
          </mxGeometry>
        </mxCell>
        <mxCell id="GzhoWgsnZMcUSQ8cTw_N-5" value="" style="group" vertex="1" connectable="0" parent="1">
          <mxGeometry x="380" y="430" width="70" height="40" as="geometry" />
        </mxCell>
        <mxCell id="GzhoWgsnZMcUSQ8cTw_N-3" value="" style="endArrow=none;html=1;rounded=0;" edge="1" parent="GzhoWgsnZMcUSQ8cTw_N-5">
          <mxGeometry width="50" height="50" relative="1" as="geometry">
            <mxPoint x="40" y="20" as="sourcePoint" />
            <mxPoint y="20" as="targetPoint" />
          </mxGeometry>
        </mxCell>
        <mxCell id="GzhoWgsnZMcUSQ8cTw_N-4" value="" style="triangle;whiteSpace=wrap;html=1;direction=west;" vertex="1" parent="GzhoWgsnZMcUSQ8cTw_N-5">
          <mxGeometry x="40" width="30" height="40" as="geometry" />
        </mxCell>
        <mxCell id="GzhoWgsnZMcUSQ8cTw_N-6" value="" style="group" vertex="1" connectable="0" parent="1">
          <mxGeometry x="380" y="370" width="70" height="40" as="geometry" />
        </mxCell>
        <mxCell id="GzhoWgsnZMcUSQ8cTw_N-7" value="" style="endArrow=none;html=1;rounded=0;" edge="1" parent="GzhoWgsnZMcUSQ8cTw_N-6">
          <mxGeometry width="50" height="50" relative="1" as="geometry">
            <mxPoint x="40" y="20" as="sourcePoint" />
            <mxPoint y="20" as="targetPoint" />
          </mxGeometry>
        </mxCell>
        <mxCell id="GzhoWgsnZMcUSQ8cTw_N-8" value="" style="triangle;whiteSpace=wrap;html=1;direction=west;" vertex="1" parent="GzhoWgsnZMcUSQ8cTw_N-6">
          <mxGeometry x="40" width="30" height="40" as="geometry" />
        </mxCell>
        <mxCell id="GzhoWgsnZMcUSQ8cTw_N-9" value="" style="group" vertex="1" connectable="0" parent="1">
          <mxGeometry x="380" y="560" width="70" height="40" as="geometry" />
        </mxCell>
        <mxCell id="GzhoWgsnZMcUSQ8cTw_N-10" value="" style="endArrow=none;html=1;rounded=0;" edge="1" parent="GzhoWgsnZMcUSQ8cTw_N-9">
          <mxGeometry width="50" height="50" relative="1" as="geometry">
            <mxPoint x="40" y="20" as="sourcePoint" />
            <mxPoint y="20" as="targetPoint" />
          </mxGeometry>
        </mxCell>
        <mxCell id="GzhoWgsnZMcUSQ8cTw_N-11" value="" style="triangle;whiteSpace=wrap;html=1;direction=west;" vertex="1" parent="GzhoWgsnZMcUSQ8cTw_N-9">
          <mxGeometry x="40" width="30" height="40" as="geometry" />
        </mxCell>
        <mxCell id="GzhoWgsnZMcUSQ8cTw_N-15" value="" style="rounded=1;whiteSpace=wrap;html=1;dashed=1;dashPattern=8 8;" vertex="1" parent="1">
          <mxGeometry x="560" y="340" width="170" height="270" as="geometry" />
        </mxCell>
        <mxCell id="GzhoWgsnZMcUSQ8cTw_N-16" value="" style="shape=cylinder3;whiteSpace=wrap;html=1;boundedLbl=1;backgroundOutline=1;size=15;direction=south;" vertex="1" parent="1">
          <mxGeometry x="590" y="365" width="110" height="50" as="geometry" />
        </mxCell>
        <mxCell id="GzhoWgsnZMcUSQ8cTw_N-18" value="" style="shape=cylinder3;whiteSpace=wrap;html=1;boundedLbl=1;backgroundOutline=1;size=13;direction=south;" vertex="1" parent="1">
          <mxGeometry x="590" y="432.5" width="110" height="35" as="geometry" />
        </mxCell>
        <mxCell id="GzhoWgsnZMcUSQ8cTw_N-19" value="" style="shape=cylinder3;whiteSpace=wrap;html=1;boundedLbl=1;backgroundOutline=1;size=8;direction=south;" vertex="1" parent="1">
          <mxGeometry x="595" y="570" width="100" height="20" as="geometry" />
        </mxCell>
        <mxCell id="GzhoWgsnZMcUSQ8cTw_N-12" value="" style="endArrow=classic;html=1;rounded=0;strokeWidth=7;" edge="1" parent="1">
          <mxGeometry width="50" height="50" relative="1" as="geometry">
            <mxPoint x="470" y="390" as="sourcePoint" />
            <mxPoint x="580" y="390" as="targetPoint" />
          </mxGeometry>
        </mxCell>
        <mxCell id="GzhoWgsnZMcUSQ8cTw_N-13" value="" style="endArrow=classic;html=1;rounded=0;strokeWidth=4;entryX=0.5;entryY=0;entryDx=0;entryDy=0;entryPerimeter=0;" edge="1" parent="1">
          <mxGeometry width="50" height="50" relative="1" as="geometry">
            <mxPoint x="470" y="450" as="sourcePoint" />
            <mxPoint x="580" y="450" as="targetPoint" />
          </mxGeometry>
        </mxCell>
        <mxCell id="GzhoWgsnZMcUSQ8cTw_N-14" value="" style="endArrow=classic;html=1;rounded=0;entryX=0.5;entryY=0;entryDx=0;entryDy=0;entryPerimeter=0;" edge="1" parent="1">
          <mxGeometry width="50" height="50" relative="1" as="geometry">
            <mxPoint x="470" y="579.5" as="sourcePoint" />
            <mxPoint x="585" y="580" as="targetPoint" />
          </mxGeometry>
        </mxCell>
        <mxCell id="GzhoWgsnZMcUSQ8cTw_N-20" value="" style="rounded=0;whiteSpace=wrap;html=1;direction=east;" vertex="1" parent="1">
          <mxGeometry x="900" y="360" width="120" height="240" as="geometry" />
        </mxCell>
        <mxCell id="GzhoWgsnZMcUSQ8cTw_N-21" value="" style="endArrow=classic;html=1;rounded=0;exitX=1;exitY=0.5;exitDx=0;exitDy=0;" edge="1" parent="1" source="GzhoWgsnZMcUSQ8cTw_N-20">
          <mxGeometry width="50" height="50" relative="1" as="geometry">
            <mxPoint x="1335" y="500" as="sourcePoint" />
            <mxPoint x="1160" y="480" as="targetPoint" />
          </mxGeometry>
        </mxCell>
        <mxCell id="GzhoWgsnZMcUSQ8cTw_N-22" value="" style="group;direction=east;flipH=1;" vertex="1" connectable="0" parent="1">
          <mxGeometry x="830" y="430" width="70" height="40" as="geometry" />
        </mxCell>
        <mxCell id="GzhoWgsnZMcUSQ8cTw_N-23" value="" style="endArrow=none;html=1;rounded=0;" edge="1" parent="GzhoWgsnZMcUSQ8cTw_N-22">
          <mxGeometry width="50" height="50" relative="1" as="geometry">
            <mxPoint x="30" y="20" as="sourcePoint" />
            <mxPoint x="70" y="20" as="targetPoint" />
          </mxGeometry>
        </mxCell>
        <mxCell id="GzhoWgsnZMcUSQ8cTw_N-24" value="" style="triangle;whiteSpace=wrap;html=1;direction=east;" vertex="1" parent="GzhoWgsnZMcUSQ8cTw_N-22">
          <mxGeometry width="30" height="40" as="geometry" />
        </mxCell>
        <mxCell id="GzhoWgsnZMcUSQ8cTw_N-25" value="" style="group;direction=east;flipH=1;" vertex="1" connectable="0" parent="1">
          <mxGeometry x="830" y="370" width="70" height="40" as="geometry" />
        </mxCell>
        <mxCell id="GzhoWgsnZMcUSQ8cTw_N-26" value="" style="endArrow=none;html=1;rounded=0;" edge="1" parent="GzhoWgsnZMcUSQ8cTw_N-25">
          <mxGeometry width="50" height="50" relative="1" as="geometry">
            <mxPoint x="30" y="20" as="sourcePoint" />
            <mxPoint x="70" y="20" as="targetPoint" />
          </mxGeometry>
        </mxCell>
        <mxCell id="GzhoWgsnZMcUSQ8cTw_N-27" value="" style="triangle;whiteSpace=wrap;html=1;direction=east;" vertex="1" parent="GzhoWgsnZMcUSQ8cTw_N-25">
          <mxGeometry width="30" height="40" as="geometry" />
        </mxCell>
        <mxCell id="GzhoWgsnZMcUSQ8cTw_N-28" value="" style="group;direction=east;flipH=1;" vertex="1" connectable="0" parent="1">
          <mxGeometry x="830" y="560" width="70" height="40" as="geometry" />
        </mxCell>
        <mxCell id="GzhoWgsnZMcUSQ8cTw_N-29" value="" style="endArrow=none;html=1;rounded=0;" edge="1" parent="GzhoWgsnZMcUSQ8cTw_N-28">
          <mxGeometry width="50" height="50" relative="1" as="geometry">
            <mxPoint x="30" y="20" as="sourcePoint" />
            <mxPoint x="70" y="20" as="targetPoint" />
          </mxGeometry>
        </mxCell>
        <mxCell id="GzhoWgsnZMcUSQ8cTw_N-30" value="" style="triangle;whiteSpace=wrap;html=1;direction=east;" vertex="1" parent="GzhoWgsnZMcUSQ8cTw_N-28">
          <mxGeometry width="30" height="40" as="geometry" />
        </mxCell>
        <mxCell id="GzhoWgsnZMcUSQ8cTw_N-31" value="" style="endArrow=classic;html=1;rounded=0;strokeWidth=7;" edge="1" parent="1">
          <mxGeometry width="50" height="50" relative="1" as="geometry">
            <mxPoint x="705" y="390" as="sourcePoint" />
            <mxPoint x="815" y="390" as="targetPoint" />
          </mxGeometry>
        </mxCell>
        <mxCell id="GzhoWgsnZMcUSQ8cTw_N-32" value="" style="endArrow=classic;html=1;rounded=0;strokeWidth=4;entryX=0.5;entryY=0;entryDx=0;entryDy=0;entryPerimeter=0;" edge="1" parent="1">
          <mxGeometry width="50" height="50" relative="1" as="geometry">
            <mxPoint x="705" y="450" as="sourcePoint" />
            <mxPoint x="815" y="450" as="targetPoint" />
          </mxGeometry>
        </mxCell>
        <mxCell id="GzhoWgsnZMcUSQ8cTw_N-33" value="" style="endArrow=classic;html=1;rounded=0;entryX=0.5;entryY=0;entryDx=0;entryDy=0;entryPerimeter=0;" edge="1" parent="1">
          <mxGeometry width="50" height="50" relative="1" as="geometry">
            <mxPoint x="700" y="579.5" as="sourcePoint" />
            <mxPoint x="815" y="580" as="targetPoint" />
          </mxGeometry>
        </mxCell>
      </root>
    </mxGraphModel>
  </diagram>
</mxfile>
